<svg width="448" height="512" xmlns="http://www.w3.org/2000/svg" class="svg-inline--fa fa-arrow-right fa-w-14">

 <g>
  <title>background</title>
  <rect fill="none" id="canvas_background" height="402" width="582" y="-1" x="-1"/>
 </g>
 <g>
  <title>Layer 1</title>
  <path id="svg_1" d="m190.5,66.9l22.2,-22.2c9.4,-9.4 24.6,-9.4 33.9,0l194.4,194.3c9.4,9.4 9.4,24.6 0,33.9l-194.4,194.4c-9.4,9.4 -24.6,9.4 -33.9,0l-22.2,-22.2c-9.5,-9.5 -9.3,-25 0.4,-34.3l120.5,-114.8l-287.4,0c-13.3,0 -24,-10.7 -24,-24l0,-32c0,-13.3 10.7,-24 24,-24l287.4,0l-120.5,-114.8c-9.8,-9.3 -10,-24.8 -0.4,-34.3z" fill="#ffffff"/>
 </g>
</svg>